<svg xmlns="http://www.w3.org/2000/svg" viewBox="0 0 1200 655" width="1200" height="655">
  <defs>
    <linearGradient id="bg2" x1="0%" y1="0%" x2="100%" y2="100%">
      <stop offset="0%" style="stop-color:#0f172a"/>
      <stop offset="100%" style="stop-color:#1e3a8a"/>
    </linearGradient>
    <linearGradient id="shield" x1="0%" y1="0%" x2="100%" y2="100%">
      <stop offset="0%" style="stop-color:#3B82F6"/>
      <stop offset="100%" style="stop-color:#A855F7"/>
    </linearGradient>
    <filter id="shieldGlow"><feGaussianBlur stdDeviation="8"/></filter>
  </defs>
  <rect width="1200" height="655" fill="url(#bg2)"/>
  <g opacity="0.06">
    <text x="0" y="50" font-family="JetBrains Mono, monospace" font-size="14" fill="#fff">01001000 01010100 01010100 01010000 01010011</text>
    <text x="0" y="80" font-family="JetBrains Mono, monospace" font-size="14" fill="#fff">SSL/TLS handshake initiated — encryption ON</text>
    <text x="0" y="110" font-family="JetBrains Mono, monospace" font-size="14" fill="#fff">auth: 2FA enabled · oauth2 verified · rate-limit OK</text>
    <text x="0" y="140" font-family="JetBrains Mono, monospace" font-size="14" fill="#fff">credentials encrypted · webhook validated · audit log</text>
    <text x="0" y="600" font-family="JetBrains Mono, monospace" font-size="14" fill="#fff">firewall: pass · CSP: strict · HSTS: max-age=31536000</text>
    <text x="0" y="630" font-family="JetBrains Mono, monospace" font-size="14" fill="#fff">backup verified · restore tested · monitoring active</text>
  </g>
  <g transform="translate(600,327) scale(2.5)" filter="url(#shieldGlow)" opacity="0.5">
    <path d="M0,-90 L70,-60 L70,30 Q70,80 0,100 Q-70,80 -70,30 L-70,-60 Z" fill="url(#shield)"/>
  </g>
  <g transform="translate(600,327) scale(2.5)">
    <path d="M0,-90 L70,-60 L70,30 Q70,80 0,100 Q-70,80 -70,30 L-70,-60 Z" fill="url(#shield)"/>
    <path d="M-30,5 L-8,28 L35,-20" stroke="#fff" stroke-width="8" fill="none" stroke-linecap="round" stroke-linejoin="round"/>
  </g>
  <text x="600" y="555" font-family="Inter, system-ui, sans-serif" font-size="42" font-weight="800" fill="#fff" text-anchor="middle">Security Best Practices</text>
  <text x="600" y="595" font-family="Inter, system-ui, sans-serif" font-size="22" font-weight="500" fill="#94a3b8" text-anchor="middle">No-Code Automation · Credentials · Webhooks · HTTPS</text>
</svg>
